<svg xmlns="http://www.w3.org/2000/svg" width="108.667" height="105.441" viewBox="0 0 108.667 105.441">
  <g id="iconfinder_Calendar01_928424" transform="translate(-15.167 -11.654)">
    <path id="Path_5" data-name="Path 5" d="M113.8,22.905H100.286V17.5a5.845,5.845,0,0,0-11.69,0v5.406H50.406V17.5a5.845,5.845,0,0,0-11.69,0v5.406H25.2A10.046,10.046,0,0,0,15.167,32.939v74.122A10.045,10.045,0,0,0,25.2,117.1h79.632a19.02,19.02,0,0,0,19-19V32.939A10.045,10.045,0,0,0,113.8,22.905Zm-88.6,8H38.723a5.839,5.839,0,0,0,11.675,0H88.6a5.84,5.84,0,0,0,11.676,0H113.8a2.061,2.061,0,0,1,2.034,2.034V48.563H23.167V32.939A2.062,2.062,0,0,1,25.2,30.905Zm-2.035,76.156V56.438h92.667V91.5H99.487l-.12,17.6H25.2A2.062,2.062,0,0,1,23.167,107.061Zm84.2,1.727.064-9.288h8.3A11.012,11.012,0,0,1,107.37,108.788Z" fill="#fff"/>
    <path id="Path_6" data-name="Path 6" d="M46.491,75.32a10.332,10.332,0,0,1,3.445-8.132A12.472,12.472,0,0,1,57.975,64.6c8,0,10.652,5.363,10.652,8,0,6.524-3.644,6.524-3.644,6.658v.089c0,.358,4.514.358,4.514,7.284,0,3.8-2.534,9.785-11.563,9.785-12.4,0-12.434-9.831-12.236-12.153h7.523a5.108,5.108,0,0,0,1.069,3.708,3.775,3.775,0,0,0,3.287,1.386c2.257,0,3.683-.938,3.683-3.485,0-2.727-1.861-3.218-3.683-3.218a12,12,0,0,0-2.3.225V76.795a21.149,21.149,0,0,0,2.3.179c1.664,0,3.762-.4,3.762-2.813,0-1.967-1.98-2.727-3.6-2.727a3.534,3.534,0,0,0-3.8,3.887H46.491Z" fill="#fff"/>
    <path id="Path_7" data-name="Path 7" d="M81.264,78.135H74.809V71.7c4,.09,7.96-1.607,8.2-6.747h6.5v31.1H81.264Z" fill="#fff"/>
  </g>
</svg>
